<?xml version="1.0" standalone="no"?>
<!DOCTYPE svg PUBLIC "-//W3C//DTD SVG 20010904//EN"
 "http://www.w3.org/TR/2001/REC-SVG-20010904/DTD/svg10.dtd">
<svg version="1.0" xmlns="http://www.w3.org/2000/svg"
 width="460.000000pt" height="460.000000pt" viewBox="0 0 460.000000 460.000000"
 preserveAspectRatio="xMidYMid meet">

<g transform="translate(0.000000,460.000000) scale(0.100000,-0.100000)"
fill="#000000" stroke="none">
<path d="M0 2300 l0 -2300 2300 0 2300 0 0 2300 0 2300 -2300 0 -2300 0 0
-2300z m2210 1180 c0 -5 -5 -10 -11 -10 -5 0 -7 5 -4 10 3 6 8 10 11 10 2 0 4
-4 4 -10z m666 -88 c6 -4 17 -18 24 -32 12 -25 12 -25 -6 -5 -11 11 -25 26
-33 33 -16 13 -3 17 15 4z m472 -30 c3 -9 -2 -13 -14 -10 -9 1 -19 9 -22 16
-3 9 2 13 14 10 9 -1 19 -9 22 -16z m-1233 -29 c-7 -21 -23 -56 -34 -78 l-22
-40 7 35 c6 31 5 33 -9 22 -14 -12 -15 -10 -4 17 7 20 14 26 19 18 7 -11 12
-3 9 16 -1 8 31 45 41 46 4 1 1 -16 -7 -36z m-355 2 c0 -8 6 -15 13 -16 10 0
10 -2 0 -6 -7 -2 -13 -11 -13 -20 0 -24 -23 -9 -31 20 -4 16 -3 28 4 31 21 8
27 6 27 -9z m1663 -9 c18 -14 24 -46 8 -46 -6 0 -17 10 -25 22 -26 37 -18 50
17 24z m-1728 -15 c3 -5 1 -12 -5 -16 -5 -3 -10 1 -10 9 0 18 6 21 15 7z m165
-7 c0 -9 5 -12 12 -8 8 5 9 2 3 -12 -4 -10 -8 -30 -8 -43 1 -37 -14 -10 -20
37 -3 23 -1 42 4 42 5 0 9 -7 9 -16z m-13 -106 c-3 -8 -6 -5 -6 6 -1 11 2 17
5 13 3 -3 4 -12 1 -19z m737 -37 c14 -27 34 -51 46 -54 11 -3 20 -12 20 -21 0
-18 -16 -21 -25 -5 -4 6 -14 8 -22 4 -9 -3 -26 2 -39 10 -19 12 -24 24 -24 59
0 37 6 56 16 56 2 0 15 -22 28 -49z m365 -13 c2 -68 -17 -168 -32 -168 -5 0
-6 8 -2 18 14 37 18 112 6 126 -13 16 -7 50 13 72 6 7 11 13 12 14 1 0 2 -28
3 -62z m-1109 3 c0 -17 -32 -21 -53 -6 -12 8 -16 15 -10 15 6 0 13 9 16 21 l6
20 20 -20 c12 -12 21 -25 21 -30z m21 22 c-12 -20 -14 -14 -5 12 4 9 9 14 11
11 3 -2 0 -13 -6 -23z m1209 1 c0 -2 -9 0 -20 6 -11 6 -20 13 -20 16 0 2 9 0
20 -6 11 -6 20 -13 20 -16z m10 -32 c0 -10 4 -22 9 -27 5 -6 12 -21 16 -35 7
-24 6 -24 -8 -5 -14 18 -15 18 -12 -9 4 -34 13 -45 24 -28 5 9 20 11 49 6 38
-6 42 -9 42 -35 0 -30 -12 -35 -100 -41 -28 -2 -36 -8 -38 -26 -2 -15 -9 -22
-17 -18 -9 3 -12 0 -8 -10 3 -7 0 -14 -6 -14 -7 0 -17 -13 -22 -30 -14 -38
-24 -38 -38 1 -15 43 -14 54 4 39 19 -16 38 -1 55 43 7 18 19 46 27 62 10 20
14 51 12 88 -2 31 -1 57 4 57 4 0 7 -8 7 -18z m-200 -18 c0 -8 5 -12 10 -9 6
3 10 -1 10 -9 0 -9 -4 -16 -10 -16 -5 0 -7 -13 -3 -30 4 -24 2 -30 -11 -30
-19 0 -61 84 -51 100 10 17 55 12 55 -6z m514 3 c13 -10 16 -21 11 -52 -4 -22
-13 -49 -22 -60 -14 -20 -15 -19 -39 8 -30 35 -31 63 -1 92 27 28 29 28 51 12z
m-1819 -27 c16 -17 16 -20 2 -26 -20 -7 -57 13 -57 31 0 22 34 18 55 -5z m329
5 c-7 -17 -20 -20 -28 -6 -7 10 3 21 20 21 8 0 11 -6 8 -15z m-569 -66 c10
-15 -1 -23 -20 -15 -9 3 -13 10 -10 16 8 13 22 13 30 -1z m60 -56 c3 -10 17
-31 31 -47 21 -24 31 -27 66 -24 37 3 46 0 79 -32 21 -19 40 -47 44 -62 4 -14
15 -35 26 -47 10 -11 19 -25 19 -31 0 -5 5 -10 10 -10 6 0 10 -9 10 -19 0 -11
5 -23 10 -26 10 -6 14 -45 5 -45 -2 0 -20 9 -40 20 -20 11 -46 20 -60 20 -22
0 -24 4 -27 57 -3 52 -6 59 -30 71 -27 13 -38 32 -18 32 6 0 9 10 9 23 -1 16
-2 18 -6 5 -3 -13 -15 -18 -44 -18 -34 0 -39 3 -39 23 0 27 -17 47 -41 47 -9
0 -19 11 -23 24 -3 13 -9 31 -12 40 -4 10 -1 16 9 16 9 0 18 -8 22 -17z m975
-27 c0 -3 -4 -8 -10 -11 -5 -3 -10 -1 -10 4 0 6 5 11 10 11 6 0 10 -2 10 -4z
m40 -31 c0 -8 -4 -17 -10 -20 -6 -4 -10 5 -10 20 0 15 4 24 10 20 6 -3 10 -12
10 -20z m555 15 c3 -5 1 -10 -4 -10 -6 0 -11 5 -11 10 0 6 2 10 4 10 3 0 8 -4
11 -10z m-953 -78 c4 -30 -14 -182 -21 -182 -4 0 -8 -12 -9 -27 -1 -15 -11
-35 -21 -44 -18 -17 -20 -17 -26 -1 -6 15 -8 15 -15 -3 -7 -16 -9 -17 -9 -3
-1 9 14 28 32 42 34 28 26 36 -11 11 -20 -14 -21 -14 -16 0 4 8 17 18 30 21
24 6 33 37 14 49 -5 3 -10 17 -10 30 0 13 -4 26 -9 29 -12 8 15 108 32 121 8
5 12 17 10 25 -1 8 4 0 12 -18 9 -18 16 -40 17 -50z m446 54 c-4 -17 -1 -23 9
-19 7 3 13 8 13 12 0 12 34 9 42 -2 4 -7 12 -6 22 2 13 11 16 11 16 -1 0 -8
-5 -19 -12 -26 -14 -14 -68 -16 -68 -3 0 4 -11 6 -24 4 -28 -6 -37 5 -29 35 8
31 37 29 31 -2z m443 -3 c-12 -20 -14 -14 -5 12 4 9 9 14 11 11 3 -2 0 -13 -6
-23z m-1398 10 c-7 -2 -19 -2 -25 0 -7 3 -2 5 12 5 14 0 19 -2 13 -5z m1747
-14 c0 -4 10 -13 21 -20 18 -9 27 -7 50 10 15 12 39 21 53 21 22 0 26 -7 37
-54 13 -59 6 -106 -15 -106 -8 0 -38 11 -68 25 -29 14 -61 25 -71 25 -10 0
-20 7 -23 15 -4 8 -12 15 -20 15 -8 0 -14 7 -14 15 0 8 -4 15 -10 15 -14 0
-12 48 2 52 18 6 58 -3 58 -13z m-304 -37 c-9 -8 -26 10 -26 26 1 15 2 15 15
-2 8 -11 13 -21 11 -24z m42 -74 c2 -21 7 -38 12 -38 5 0 7 -7 4 -15 -5 -13
-12 -12 -42 7 -19 12 -32 16 -28 9 10 -15 -20 -50 -53 -63 -18 -7 -21 -12 -13
-20 14 -14 16 -32 3 -24 -11 7 -19 -28 -23 -94 -3 -45 -2 -45 32 -49 33 -4 34
-4 10 -11 -24 -8 -24 -8 -2 -9 12 -1 22 -7 22 -14 0 -15 55 -37 93 -37 28 0
46 -18 29 -29 -7 -4 -12 -30 -13 -59 -1 -29 -6 -55 -10 -57 -10 -7 -22 51 -14
65 3 5 2 10 -3 10 -6 0 -9 7 -8 17 1 10 -10 19 -30 25 -17 4 -37 15 -44 23 -7
8 -20 15 -29 16 -12 0 -11 2 4 9 18 7 17 9 -10 19 -16 6 -42 17 -56 25 l-27
14 0 -42 c0 -22 -1 -54 -2 -71 -2 -25 -4 -22 -14 20 l-12 50 -7 -41 c-4 -23
-14 -56 -22 -75 l-16 -34 8 35 c4 19 6 61 5 93 -1 32 2 56 6 53 5 -3 9 7 10
22 2 74 32 152 59 152 7 0 13 4 13 10 0 13 62 114 72 118 4 2 8 10 8 17 0 9
13 13 43 12 41 -2 42 -3 45 -39z m307 -111 c0 -9 6 -22 13 -29 18 -18 15 -28
-8 -28 -15 0 -20 7 -20 25 0 18 -5 25 -20 25 -19 0 -26 11 -15 22 12 11 50 0
50 -15z m-75 -83 c0 -30 -11 -37 -27 -14 -11 16 -11 23 -1 39 14 23 28 11 28
-25z m-1330 12 c-8 -8 -24 -16 -35 -18 -11 -2 -26 -11 -34 -21 -7 -10 -20 -16
-28 -12 -19 7 -45 -13 -37 -27 4 -6 -15 -9 -52 -7 -33 1 -75 1 -94 0 -33 -3
-33 -3 -10 -11 22 -7 21 -8 -12 -9 -40 -1 -59 -17 -31 -24 10 -3 1 -5 -19 -6
-42 -1 -50 -15 -15 -26 15 -5 -2 -10 -58 -15 -82 -7 -130 -23 -120 -40 3 -5
-7 -12 -22 -16 -57 -12 -93 -26 -93 -35 0 -5 -8 -9 -17 -9 -10 0 -35 -11 -57
-24 -21 -14 -46 -22 -54 -18 -11 4 -14 1 -9 -11 4 -10 2 -14 -7 -11 -20 8
-101 -81 -143 -155 -27 -47 -38 -61 -41 -47 -2 10 6 30 17 45 12 14 26 37 32
51 11 26 68 99 103 132 20 18 110 69 271 152 39 20 88 41 110 47 22 5 85 23
140 39 196 58 300 88 315 89 13 1 13 -1 0 -13z m17 -58 c-3 -8 -6 -5 -6 6 -1
11 2 17 5 13 3 -3 4 -12 1 -19z m-277 -88 c8 -5 11 -10 5 -10 -5 0 -17 5 -25
10 -8 5 -10 10 -5 10 6 0 17 -5 25 -10z m-139 -50 c10 -6 25 -23 33 -38 15
-29 59 -192 53 -198 -2 -2 -15 34 -30 80 -15 46 -41 101 -57 121 -39 49 -39
56 1 35z m1607 -45 c11 -13 22 -21 26 -18 3 4 12 0 19 -9 6 -8 37 -20 67 -27
125 -26 328 -228 357 -355 28 -125 36 -152 44 -160 12 -13 11 -67 -1 -86 -8
-12 -10 -9 -10 13 0 16 -4 26 -10 22 -9 -6 -15 9 -11 29 1 6 0 21 -4 34 -5 19
-9 21 -20 12 -15 -12 -19 2 -31 105 -8 71 -20 99 -40 91 -10 -4 -18 4 -25 22
-6 15 -20 38 -32 51 -31 32 -132 97 -184 117 -24 9 -43 21 -43 25 0 5 -17 9
-38 9 -33 0 -39 4 -50 33 -16 38 -20 46 -50 86 -23 30 -23 31 -3 31 11 0 28
-11 39 -25z m-1834 -77 c32 -53 75 -142 72 -146 -2 -2 -20 21 -40 50 -20 29
-46 65 -58 80 -11 14 -17 31 -14 37 11 18 21 13 40 -21z m1725 -150 c-1 -53
-2 -57 -8 -28 -4 20 -10 41 -14 47 -8 13 1 43 14 43 5 0 8 -28 8 -62z m-871 1
c-3 -8 -7 -3 -11 10 -4 17 -3 21 5 13 5 -5 8 -16 6 -23z m137 -69 c13 -6 15
-9 5 -9 -8 0 -22 4 -30 9 -18 12 -2 12 25 0z m222 4 c-3 -3 -12 -4 -19 -1 -8
3 -5 6 6 6 11 1 17 -2 13 -5z m-40 -10 c-3 -3 -12 -4 -19 -1 -8 3 -5 6 6 6 11
1 17 -2 13 -5z m-40 -10 c-3 -3 -12 -4 -19 -1 -8 3 -5 6 6 6 11 1 17 -2 13 -5z
m-1529 -74 c-7 -11 -16 -20 -21 -20 -4 0 -3 9 3 20 6 11 15 20 20 20 6 0 5 -9
-2 -20z m2782 -130 c0 -5 -2 -10 -4 -10 -3 0 -8 5 -11 10 -3 6 -1 10 4 10 6 0
11 -4 11 -10z m-2740 -1403 c0 -29 -7 -37 -25 -30 -11 4 -11 10 -3 29 14 31
28 31 28 1z m-45 -117 c-3 -5 -11 -10 -16 -10 -6 0 -7 5 -4 10 3 6 11 10 16
10 6 0 7 -4 4 -10z"/>
<path d="M2786 2635 c-3 -9 -6 -22 -5 -28 0 -7 5 -1 10 12 5 13 8 26 5 28 -2
2 -6 -3 -10 -12z"/>
<path d="M2796 2607 c-11 -20 -14 -33 -7 -35 6 -2 11 -8 11 -13 0 -6 -4 -8 -9
-4 -5 3 -12 1 -16 -4 -6 -10 24 -31 44 -31 13 0 15 106 3 114 -4 2 -16 -10
-26 -27z"/>
</g>
</svg>
